<?xml version="1.0" standalone="no"?>
<svg xmlns:xlink="http://www.w3.org/1999/xlink" id="wave" style="transform:rotate(0deg); transition: 0.3s" viewBox="0 0 1440 130" version="1.1" xmlns="http://www.w3.org/2000/svg"><defs><linearGradient id="sw-gradient-0" x1="0" x2="0" y1="1" y2="0"><stop stop-color="rgba(33.274, 33.274, 33.274, 1)" offset="0%"/><stop stop-color="rgba(251.846, 251.846, 251.846, 1)" offset="100%"/></linearGradient></defs><path style="transform:translate(0, 0px); opacity:1" fill="url(#sw-gradient-0)" d="M0,0L15,8.7C30,17,60,35,90,49.8C120,65,150,78,180,75.8C210,74,240,56,270,41.2C300,26,330,13,360,19.5C390,26,420,52,450,62.8C480,74,510,69,540,71.5C570,74,600,82,630,86.7C660,91,690,91,720,84.5C750,78,780,65,810,67.2C840,69,870,87,900,97.5C930,108,960,113,990,104C1020,95,1050,74,1080,60.7C1110,48,1140,43,1170,34.7C1200,26,1230,13,1260,23.8C1290,35,1320,69,1350,75.8C1380,82,1410,61,1440,45.5C1470,30,1500,22,1530,17.3C1560,13,1590,13,1620,23.8C1650,35,1680,56,1710,69.3C1740,82,1770,87,1800,91C1830,95,1860,100,1890,99.7C1920,100,1950,95,1980,78C2010,61,2040,30,2070,21.7C2100,13,2130,26,2145,32.5L2160,39L2160,130L2145,130C2130,130,2100,130,2070,130C2040,130,2010,130,1980,130C1950,130,1920,130,1890,130C1860,130,1830,130,1800,130C1770,130,1740,130,1710,130C1680,130,1650,130,1620,130C1590,130,1560,130,1530,130C1500,130,1470,130,1440,130C1410,130,1380,130,1350,130C1320,130,1290,130,1260,130C1230,130,1200,130,1170,130C1140,130,1110,130,1080,130C1050,130,1020,130,990,130C960,130,930,130,900,130C870,130,840,130,810,130C780,130,750,130,720,130C690,130,660,130,630,130C600,130,570,130,540,130C510,130,480,130,450,130C420,130,390,130,360,130C330,130,300,130,270,130C240,130,210,130,180,130C150,130,120,130,90,130C60,130,30,130,15,130L0,130Z"/><defs><linearGradient id="sw-gradient-1" x1="0" x2="0" y1="1" y2="0"><stop stop-color="rgba(44.658, 42.803, 42.208, 1)" offset="0%"/><stop stop-color="rgba(255, 255, 255, 1)" offset="100%"/></linearGradient></defs><path style="transform:translate(0, 50px); opacity:0.9" fill="url(#sw-gradient-1)" d="M0,26L15,36.8C30,48,60,69,90,71.5C120,74,150,56,180,45.5C210,35,240,30,270,41.2C300,52,330,78,360,84.5C390,91,420,78,450,73.7C480,69,510,74,540,69.3C570,65,600,52,630,43.3C660,35,690,30,720,36.8C750,43,780,61,810,71.5C840,82,870,87,900,82.3C930,78,960,65,990,49.8C1020,35,1050,17,1080,8.7C1110,0,1140,0,1170,4.3C1200,9,1230,17,1260,32.5C1290,48,1320,69,1350,78C1380,87,1410,82,1440,71.5C1470,61,1500,43,1530,43.3C1560,43,1590,61,1620,67.2C1650,74,1680,69,1710,56.3C1740,43,1770,22,1800,13C1830,4,1860,9,1890,15.2C1920,22,1950,30,1980,30.3C2010,30,2040,22,2070,15.2C2100,9,2130,4,2145,2.2L2160,0L2160,130L2145,130C2130,130,2100,130,2070,130C2040,130,2010,130,1980,130C1950,130,1920,130,1890,130C1860,130,1830,130,1800,130C1770,130,1740,130,1710,130C1680,130,1650,130,1620,130C1590,130,1560,130,1530,130C1500,130,1470,130,1440,130C1410,130,1380,130,1350,130C1320,130,1290,130,1260,130C1230,130,1200,130,1170,130C1140,130,1110,130,1080,130C1050,130,1020,130,990,130C960,130,930,130,900,130C870,130,840,130,810,130C780,130,750,130,720,130C690,130,660,130,630,130C600,130,570,130,540,130C510,130,480,130,450,130C420,130,390,130,360,130C330,130,300,130,270,130C240,130,210,130,180,130C150,130,120,130,90,130C60,130,30,130,15,130L0,130Z"/><defs><linearGradient id="sw-gradient-2" x1="0" x2="0" y1="1" y2="0"><stop stop-color="rgba(8.23, 8.204, 8.196, 1)" offset="0%"/><stop stop-color="rgba(255, 255, 255, 1)" offset="100%"/></linearGradient></defs><path style="transform:translate(0, 100px); opacity:0.8" fill="url(#sw-gradient-2)" d="M0,0L15,2.2C30,4,60,9,90,21.7C120,35,150,56,180,65C210,74,240,69,270,60.7C300,52,330,39,360,45.5C390,52,420,78,450,75.8C480,74,510,43,540,34.7C570,26,600,39,630,56.3C660,74,690,95,720,93.2C750,91,780,65,810,54.2C840,43,870,48,900,56.3C930,65,960,78,990,86.7C1020,95,1050,100,1080,104C1110,108,1140,113,1170,108.3C1200,104,1230,91,1260,71.5C1290,52,1320,26,1350,15.2C1380,4,1410,9,1440,10.8C1470,13,1500,13,1530,26C1560,39,1590,65,1620,80.2C1650,95,1680,100,1710,99.7C1740,100,1770,95,1800,84.5C1830,74,1860,56,1890,47.7C1920,39,1950,39,1980,39C2010,39,2040,39,2070,32.5C2100,26,2130,13,2145,6.5L2160,0L2160,130L2145,130C2130,130,2100,130,2070,130C2040,130,2010,130,1980,130C1950,130,1920,130,1890,130C1860,130,1830,130,1800,130C1770,130,1740,130,1710,130C1680,130,1650,130,1620,130C1590,130,1560,130,1530,130C1500,130,1470,130,1440,130C1410,130,1380,130,1350,130C1320,130,1290,130,1260,130C1230,130,1200,130,1170,130C1140,130,1110,130,1080,130C1050,130,1020,130,990,130C960,130,930,130,900,130C870,130,840,130,810,130C780,130,750,130,720,130C690,130,660,130,630,130C600,130,570,130,540,130C510,130,480,130,450,130C420,130,390,130,360,130C330,130,300,130,270,130C240,130,210,130,180,130C150,130,120,130,90,130C60,130,30,130,15,130L0,130Z"/><defs><linearGradient id="sw-gradient-3" x1="0" x2="0" y1="1" y2="0"><stop stop-color="rgba(0, 0, 0, 1)" offset="0%"/><stop stop-color="rgba(199.48, 199.48, 199.48, 1)" offset="100%"/></linearGradient></defs><path style="transform:translate(0, 150px); opacity:0.7" fill="url(#sw-gradient-3)" d="M0,52L15,56.3C30,61,60,69,90,78C120,87,150,95,180,91C210,87,240,69,270,67.2C300,65,330,78,360,88.8C390,100,420,108,450,110.5C480,113,510,108,540,88.8C570,69,600,35,630,36.8C660,39,690,78,720,82.3C750,87,780,56,810,49.8C840,43,870,61,900,58.5C930,56,960,35,990,34.7C1020,35,1050,56,1080,67.2C1110,78,1140,78,1170,78C1200,78,1230,78,1260,80.2C1290,82,1320,87,1350,86.7C1380,87,1410,82,1440,69.3C1470,56,1500,35,1530,41.2C1560,48,1590,82,1620,95.3C1650,108,1680,100,1710,91C1740,82,1770,74,1800,62.8C1830,52,1860,39,1890,30.3C1920,22,1950,17,1980,19.5C2010,22,2040,30,2070,39C2100,48,2130,56,2145,60.7L2160,65L2160,130L2145,130C2130,130,2100,130,2070,130C2040,130,2010,130,1980,130C1950,130,1920,130,1890,130C1860,130,1830,130,1800,130C1770,130,1740,130,1710,130C1680,130,1650,130,1620,130C1590,130,1560,130,1530,130C1500,130,1470,130,1440,130C1410,130,1380,130,1350,130C1320,130,1290,130,1260,130C1230,130,1200,130,1170,130C1140,130,1110,130,1080,130C1050,130,1020,130,990,130C960,130,930,130,900,130C870,130,840,130,810,130C780,130,750,130,720,130C690,130,660,130,630,130C600,130,570,130,540,130C510,130,480,130,450,130C420,130,390,130,360,130C330,130,300,130,270,130C240,130,210,130,180,130C150,130,120,130,90,130C60,130,30,130,15,130L0,130Z"/></svg>